<?xml version="1.0" encoding="iso-8859-1"?>
<!-- Generator: Adobe Illustrator 19.0.0, SVG Export Plug-In . SVG Version: 6.00 Build 0)  -->
<svg version="1.1" id="Capa_1" xmlns="http://www.w3.org/2000/svg" xmlns:xlink="http://www.w3.org/1999/xlink" x="0px" y="0px"
	 viewBox="0 0 470 470" style="enable-background:new 0 0 470 470;" xml:space="preserve">
<g>
	<path style="fill:#D35B38;" d="M176.019,38.096C159.999,23.197,139.184,15,117.344,15c-19.492,0-38.169,6.531-53.349,18.528
		l10.042,10.634c12.039-9.157,27.048-14.602,43.306-14.602c18.955,0,36.202,7.409,49.033,19.465l9.99-10.583
		c-0.018-0.017-0.037-0.031-0.055-0.047C176.211,38.298,176.113,38.197,176.019,38.096z"/>
	<path style="fill:#FFAD61;" d="M60.665,123.801v39.093h12.5c4.143,0,7.5,3.357,7.5,7.5s-3.357,7.5-7.5,7.5H57.97
		c-4.169,9.278-7.597,18.692-10.286,28.211h83.84c4.143,0,7.5,3.357,7.5,7.5c0,0.003,15,0.003,15,0.003
		c0-4.146,3.357-7.503,7.5-7.503h12.5V101.24c0-31.253-25.427-56.68-56.68-56.68c-14.686,0-28.084,5.616-38.163,14.812
		c-0.171,0.2-0.354,0.394-0.549,0.578c-0.18,0.17-0.367,0.33-0.559,0.479C67.354,70.748,60.665,85.223,60.665,101.24
		c0,4.142-3.356,7.498-7.497,7.5v7.561C57.309,116.302,60.665,119.659,60.665,123.801z M97.637,78.667
		c12.285,0,22.28,9.995,22.28,22.28c0,12.286-9.995,22.281-22.28,22.281s-22.28-9.995-22.28-22.281
		C75.356,88.662,85.352,78.667,97.637,78.667z"/>
	<path style="fill:#87635C;" d="M90.356,100.947c0,4.015,3.266,7.281,7.28,7.281s7.28-3.267,7.28-7.281s-3.266-7.28-7.28-7.28
		S90.356,96.933,90.356,100.947z"/>
	<path style="fill:#4D3D36;" d="M97.637,123.229c12.285,0,22.28-9.995,22.28-22.281c0-12.285-9.995-22.28-22.28-22.28
		s-22.28,9.995-22.28,22.28C75.356,113.233,85.352,123.229,97.637,123.229z M104.917,100.947c0,4.015-3.266,7.281-7.28,7.281
		s-7.28-3.267-7.28-7.281s3.266-7.28,7.28-7.28S104.917,96.933,104.917,100.947z"/>
	<path style="fill:#FFFFFF;" d="M131.523,221.104H44.072c-2.425,12.217-3.652,24.576-3.652,37.017
		C40.42,366.681,128.739,455,237.299,455s196.88-88.319,196.88-196.879v-11.687h-2.354c-4.143,0-7.5-3.357-7.5-7.5
		s3.357-7.5,7.5-7.5h2.354v-22.343h-2.354c-4.143,0-7.5-3.357-7.5-7.5s3.357-7.5,7.5-7.5h2.354V171.75h-2.354
		c-4.143,0-7.5-3.357-7.5-7.5s3.357-7.5,7.5-7.5h2.354v-3.785c0-10.657-7.107-19.29-16.815-21.263l-46.018,85.458
		c-1.309,2.43-3.845,3.944-6.604,3.944H181.523h-20c-4.141,0-7.498-3.356-7.5-7.497h-15
		C139.021,217.749,135.665,221.104,131.523,221.104z M358.007,320.513c-4.143,0-7.5-3.357-7.5-7.5s3.357-7.5,7.5-7.5
		c13.915,0,25.236,11.321,25.236,25.236c0,13.916-11.321,25.237-25.236,25.237c-4.143,0-7.5-3.357-7.5-7.5s3.357-7.5,7.5-7.5
		c5.645,0,10.236-4.593,10.236-10.237S363.651,320.513,358.007,320.513z M308.738,272.094c-4.143,0-7.5-3.357-7.5-7.5
		s3.357-7.5,7.5-7.5c13.915,0,25.236,11.321,25.236,25.236s-11.321,25.236-25.236,25.236c-4.143,0-7.5-3.357-7.5-7.5
		s3.357-7.5,7.5-7.5c5.645,0,10.236-4.592,10.236-10.236S314.383,272.094,308.738,272.094z M237.3,395.879
		c9.214,0,16.71-7.496,16.71-16.71s-7.496-16.71-16.71-16.71h-24.561c-4.143,0-7.5-3.357-7.5-7.5s3.357-7.5,7.5-7.5H237.3
		c9.214,0,16.71-7.496,16.71-16.71c0-9.213-7.496-16.709-16.71-16.709h-24.561c-4.143,0-7.5-3.357-7.5-7.5s3.357-7.5,7.5-7.5H237.3
		c9.214,0,16.71-7.496,16.71-16.71s-7.496-16.71-16.71-16.71h-24.561c-4.143,0-7.5-3.357-7.5-7.5s3.357-7.5,7.5-7.5H237.3
		c17.485,0,31.71,14.225,31.71,31.71c0,9.698-4.381,18.389-11.262,24.21c6.881,5.821,11.262,14.511,11.262,24.209
		c0,9.698-4.381,18.389-11.262,24.21c6.881,5.821,11.262,14.511,11.262,24.21c0,17.485-14.225,31.71-31.71,31.71
		c-84.231,0-152.759-68.527-152.759-152.759c0-4.143,3.357-7.5,7.5-7.5s7.5,3.357,7.5,7.5
		C99.541,334.08,161.339,395.879,237.3,395.879z"/>
	<path style="fill:#4D3D36;" d="M451.532,209.092c4.143,0,7.5-3.357,7.5-7.5s-3.357-7.5-7.5-7.5h-2.354V171.75h2.354
		c4.143,0,7.5-3.357,7.5-7.5s-3.357-7.5-7.5-7.5h-2.354v-3.785c0-20.572-15.842-36.687-36.066-36.687
		c-2.759,0-5.295,1.515-6.604,3.944l-46.246,85.882H189.023V101.24c0-20.57-8.722-39.13-22.647-52.214
		c-12.831-12.057-30.078-19.465-49.033-19.465c-16.259,0-31.267,5.445-43.306,14.602L63.995,33.528
		C79.175,21.531,97.852,15,117.344,15c21.84,0,42.655,8.197,58.675,23.096c0.095,0.102,0.192,0.202,0.294,0.3
		c0.018,0.017,0.037,0.031,0.055,0.047c2.986,2.82,7.705,2.705,10.563-0.261c1.391-1.443,2.145-3.384,2.096-5.387
		c-0.05-2.004-0.899-3.904-2.358-5.278C167.806,9.772,143.187,0,117.344,0c-25.841,0-50.46,9.772-69.321,27.517
		c-3,2.822-3.163,7.536-0.364,10.559c0.017,0.018,0.058,0.063,0.074,0.08l15.38,16.286C53.791,65.228,47.615,78.805,46.055,93.74
		H18.468c-4.143,0-7.5,3.357-7.5,7.5s3.357,7.5,7.5,7.5h34.697c4.144-0.002,7.5-3.358,7.5-7.5c0-16.017,6.689-30.492,17.407-40.811
		c0.192-0.149,0.379-0.308,0.559-0.479c0.196-0.185,0.378-0.378,0.549-0.578c10.079-9.196,23.477-14.812,38.163-14.812
		c31.253,0,56.68,25.427,56.68,56.68v104.864h-12.5c-4.143,0-7.5,3.357-7.5,7.5c0.002,4.144,3.359,7.5,7.5,7.5h20h183.219
		c2.759,0,5.295-1.515,6.604-3.944l46.018-85.458c9.708,1.973,16.815,10.605,16.815,21.263v3.785h-2.354c-4.143,0-7.5,3.357-7.5,7.5
		s3.357,7.5,7.5,7.5h2.354v22.342h-2.354c-4.143,0-7.5,3.357-7.5,7.5s3.357,7.5,7.5,7.5h2.354v22.343h-2.354
		c-4.143,0-7.5,3.357-7.5,7.5s3.357,7.5,7.5,7.5h2.354v11.687c0,108.56-88.32,196.879-196.88,196.879S40.42,366.681,40.42,258.121
		c0-12.441,1.227-24.8,3.652-37.017h87.452c4.141,0,7.498-3.356,7.5-7.497c0-4.146-3.357-7.503-7.5-7.503h-83.84
		c2.689-9.519,6.117-18.933,10.286-28.211h15.195c4.143,0,7.5-3.357,7.5-7.5s-3.357-7.5-7.5-7.5h-12.5v-39.093
		c0-4.142-3.356-7.498-7.497-7.5c-0.003,0-18.773,0-18.773,0c-4.143,0-7.5,3.357-7.5,7.5s3.357,7.5,7.5,7.5h11.271v37.414
		c-13.436,28.771-20.245,58.841-20.245,89.406C25.42,374.951,120.469,470,237.299,470c116.831,0,211.88-95.049,211.88-211.879
		v-11.687h2.354c4.143,0,7.5-3.357,7.5-7.5s-3.357-7.5-7.5-7.5h-2.354v-22.343H451.532z"/>
	<path style="fill:#4D3D36;" d="M99.541,258.12c0-4.143-3.357-7.5-7.5-7.5s-7.5,3.357-7.5,7.5
		c0,84.231,68.527,152.759,152.759,152.759c17.485,0,31.71-14.225,31.71-31.71c0-9.698-4.381-18.389-11.262-24.21
		c6.881-5.821,11.262-14.511,11.262-24.21c0-9.698-4.381-18.388-11.262-24.209c6.881-5.821,11.262-14.511,11.262-24.21
		c0-17.485-14.225-31.71-31.71-31.71h-24.561c-4.143,0-7.5,3.357-7.5,7.5s3.357,7.5,7.5,7.5H237.3c9.214,0,16.71,7.496,16.71,16.71
		s-7.496,16.71-16.71,16.71h-24.561c-4.143,0-7.5,3.357-7.5,7.5s3.357,7.5,7.5,7.5H237.3c9.214,0,16.71,7.496,16.71,16.709
		c0,9.214-7.496,16.71-16.71,16.71h-24.561c-4.143,0-7.5,3.357-7.5,7.5s3.357,7.5,7.5,7.5H237.3c9.214,0,16.71,7.496,16.71,16.71
		s-7.496,16.71-16.71,16.71C161.339,395.879,99.541,334.08,99.541,258.12z"/>
	<path style="fill:#FFAD61;" d="M358.007,340.986c-4.143,0-7.5,3.357-7.5,7.5s3.357,7.5,7.5,7.5
		c13.915,0,25.236-11.321,25.236-25.237c0-13.915-11.321-25.236-25.236-25.236c-4.143,0-7.5,3.357-7.5,7.5s3.357,7.5,7.5,7.5
		c5.645,0,10.236,4.592,10.236,10.236S363.651,340.986,358.007,340.986z"/>
	<path style="fill:#FFAD61;" d="M308.738,292.566c-4.143,0-7.5,3.357-7.5,7.5s3.357,7.5,7.5,7.5
		c13.915,0,25.236-11.321,25.236-25.236s-11.321-25.236-25.236-25.236c-4.143,0-7.5,3.357-7.5,7.5s3.357,7.5,7.5,7.5
		c5.645,0,10.236,4.592,10.236,10.236S314.383,292.566,308.738,292.566z"/>
</g>
<g>
</g>
<g>
</g>
<g>
</g>
<g>
</g>
<g>
</g>
<g>
</g>
<g>
</g>
<g>
</g>
<g>
</g>
<g>
</g>
<g>
</g>
<g>
</g>
<g>
</g>
<g>
</g>
<g>
</g>
</svg>
