<?xml version="1.0" encoding="iso-8859-1"?>
<!-- Generator: Adobe Illustrator 19.0.0, SVG Export Plug-In . SVG Version: 6.00 Build 0)  -->
<svg version="1.1" id="Layer_1" xmlns="http://www.w3.org/2000/svg" xmlns:xlink="http://www.w3.org/1999/xlink" x="0px" y="0px"
	 viewBox="0 0 511.985 511.985" style="enable-background:new 0 0 511.985 511.985;" xml:space="preserve">
<path style="fill:#E6E9ED;" d="M511.984,458.639c0,23.576-19.109,42.686-42.67,42.686H42.655C19.093,501.325,0,482.216,0,458.639
	V53.331c0-23.57,19.093-42.67,42.655-42.67h426.66c23.561,0,42.67,19.101,42.67,42.67L511.984,458.639L511.984,458.639z"/>
<path style="fill:#F5F7FA;" d="M469.314,10.66H42.655C19.093,10.66,0,29.761,0,53.33v405.309c0,23.576,19.093,42.686,42.655,42.686
	h426.66c23.561,0,42.67-19.109,42.67-42.686V53.331C511.984,29.761,492.875,10.66,469.314,10.66z M490.64,458.639
	c0,11.781-9.562,21.342-21.326,21.342H42.655c-11.765,0-21.327-9.561-21.327-21.342V53.331c0-11.765,9.562-21.335,21.327-21.335
	h426.66c11.765,0,21.326,9.57,21.326,21.335L490.64,458.639L490.64,458.639z"/>
<path style="fill:#ED5564;" d="M149.324,53.331c-53.014,0-95.997,42.975-95.997,95.997c0,53.014,42.983,95.997,95.997,95.997
	s95.997-42.983,95.997-95.997C245.321,96.306,202.337,53.331,149.324,53.331z M149.324,170.656
	c-11.781,0-21.328-9.547-21.328-21.328s9.546-21.335,21.328-21.335c11.781,0,21.327,9.555,21.327,21.335
	S161.104,170.656,149.324,170.656z"/>
<path style="fill:#48CFAD;" d="M362.644,53.331c-53.014,0-95.996,42.975-95.996,95.997c0,53.014,42.982,95.997,95.996,95.997
	c53.015,0,95.998-42.983,95.998-95.997C458.642,96.306,415.659,53.331,362.644,53.331z M362.644,170.656
	c-11.78,0-21.326-9.547-21.326-21.328s9.546-21.335,21.326-21.335c11.781,0,21.344,9.555,21.344,21.335
	S374.426,170.656,362.644,170.656z"/>
<path style="fill:#A0D468;" d="M149.324,266.653c-53.014,0-95.997,42.99-95.997,95.988c0,53.029,42.983,95.998,95.997,95.998
	s95.997-42.969,95.997-95.998C245.321,309.643,202.337,266.653,149.324,266.653z M149.324,383.985
	c-11.781,0-21.328-9.562-21.328-21.344c-0.016-11.781,9.546-21.312,21.328-21.312c11.781,0,21.327,9.531,21.327,21.312
	S161.104,383.985,149.324,383.985z"/>
<path style="fill:#FFCE54;" d="M430.533,294.768c-37.498-37.482-98.277-37.482-135.761,0c-37.499,37.5-37.499,98.279,0,135.762
	c37.483,37.484,98.263,37.484,135.761,0C468.017,393.048,468.017,332.268,430.533,294.768z M377.738,377.735
	c-8.344,8.344-21.843,8.344-30.171,0c-8.327-8.328-8.327-21.844,0-30.172c8.328-8.326,21.827-8.326,30.171,0
	C386.066,355.891,386.066,369.407,377.738,377.735z"/>
<path style="fill:#DA4453;" d="M156.87,88.455c-2.094-2.086-4.812-3.125-7.546-3.125l0,0c-35.343,0-63.998,28.648-63.998,63.99
	c0,2.727,1.031,5.461,3.125,7.546c4.156,4.164,10.922,4.164,15.078,0c2.093-2.078,3.125-4.812,3.125-7.539l0,0l0,0
	c0-23.531,19.14-42.67,42.671-42.67l0,0c2.734,0,5.453-1.039,7.546-3.125C161.026,99.368,161.026,92.618,156.87,88.455z"/>
<g>
	<path style="fill:#5D9CEC;" d="M312.443,141.782c-4.172,4.164-4.172,10.921,0,15.085c4.156,4.164,10.922,4.164,15.078,0
		c4.172-4.164,4.172-10.921,0-15.085C323.365,137.618,316.599,137.618,312.443,141.782z"/>
	<path style="fill:#5D9CEC;" d="M397.769,141.782c-4.156,4.164-4.156,10.921,0,15.085c4.172,4.164,10.921,4.164,15.093,0
		c4.156-4.164,4.156-10.921,0-15.085C408.69,137.618,401.941,137.618,397.769,141.782z"/>
	<path style="fill:#5D9CEC;" d="M348.864,173.781c-4.172-4.164-10.921-4.164-15.093,0c-4.156,4.164-4.156,10.921,0,15.085
		c4.172,4.164,10.921,4.164,15.093,0C353.02,184.702,353.02,177.945,348.864,173.781z"/>
	<path style="fill:#5D9CEC;" d="M376.441,173.781c-4.172,4.164-4.172,10.921,0,15.085c4.156,4.164,10.922,4.164,15.078,0
		c4.172-4.164,4.172-10.921,0-15.085C387.363,169.617,380.597,169.617,376.441,173.781z"/>
	<path style="fill:#5D9CEC;" d="M419.096,173.781c-4.156,4.172-4.156,10.921,0,15.085c4.172,4.164,10.921,4.164,15.093,0
		c4.156-4.164,4.156-10.913,0-15.085C430.017,169.617,423.268,169.617,419.096,173.781z"/>
	<path style="fill:#5D9CEC;" d="M291.1,173.781c-4.156,4.172-4.156,10.921,0,15.085c4.172,4.164,10.921,4.164,15.093,0
		c4.156-4.164,4.156-10.913,0-15.085C302.021,169.617,295.272,169.617,291.1,173.781z"/>
	<path style="fill:#5D9CEC;" d="M348.864,124.868c4.156-4.164,4.156-10.913,0-15.085c-4.172-4.164-10.921-4.164-15.093,0
		c-4.156,4.172-4.156,10.921,0,15.085C337.943,129.032,344.692,129.032,348.864,124.868z"/>
	<path style="fill:#5D9CEC;" d="M376.441,109.783c-4.172,4.172-4.172,10.921,0,15.085c4.156,4.164,10.922,4.164,15.078,0
		c4.172-4.164,4.172-10.913,0-15.085C387.363,105.618,380.597,105.618,376.441,109.783z"/>
	<path style="fill:#5D9CEC;" d="M434.189,124.868c4.156-4.164,4.156-10.913,0-15.077c-4.172-4.172-10.921-4.172-15.093,0
		c-4.156,4.164-4.156,10.914,0,15.077C423.268,129.039,430.017,129.039,434.189,124.868z"/>
	<path style="fill:#5D9CEC;" d="M291.1,109.79c-4.156,4.164-4.156,10.914,0,15.077c4.172,4.172,10.921,4.172,15.093,0
		c4.156-4.164,4.156-10.913,0-15.077C302.021,105.618,295.272,105.618,291.1,109.79z"/>
	<path style="fill:#5D9CEC;" d="M312.443,205.78c-4.172,4.172-4.172,10.921,0,15.085c4.156,4.164,10.922,4.164,15.078,0
		c4.172-4.164,4.172-10.913,0-15.085C323.365,201.616,316.599,201.616,312.443,205.78z"/>
	<path style="fill:#5D9CEC;" d="M355.098,205.78c-4.156,4.172-4.156,10.921,0,15.085c4.172,4.164,10.921,4.164,15.093,0
		c4.156-4.164,4.156-10.913,0-15.085C366.019,201.616,359.27,201.616,355.098,205.78z"/>
	<path style="fill:#5D9CEC;" d="M397.769,205.78c-4.156,4.172-4.156,10.921,0,15.085c4.172,4.164,10.921,4.164,15.093,0
		c4.156-4.164,4.156-10.913,0-15.085C408.69,201.616,401.941,201.616,397.769,205.78z"/>
	<path style="fill:#5D9CEC;" d="M370.191,92.868c4.156-4.164,4.156-10.921,0-15.085c-4.172-4.164-10.921-4.164-15.093,0
		c-4.156,4.164-4.156,10.921,0,15.085C359.27,97.033,366.019,97.033,370.191,92.868z"/>
	<path style="fill:#5D9CEC;" d="M412.862,92.868c4.156-4.164,4.156-10.921,0-15.085c-4.172-4.164-10.921-4.164-15.093,0
		s-4.172,10.921,0,15.085C401.941,97.033,408.69,97.033,412.862,92.868z"/>
	<path style="fill:#5D9CEC;" d="M312.443,77.784c-4.172,4.164-4.172,10.921,0,15.085c4.156,4.164,10.922,4.164,15.078,0
		c4.172-4.164,4.172-10.921,0-15.085C323.365,73.619,316.599,73.619,312.443,77.784z"/>
</g>
<g>
	<path style="fill:#4FC2E9;" d="M154.839,342.048l-19.905-74.316c-7.156,1.078-14.062,2.945-20.609,5.508l19.906,74.324
		c3.859-3.859,9.203-6.234,15.093-6.234C151.23,341.329,153.089,341.579,154.839,342.048z"/>
	<path style="fill:#4FC2E9;" d="M209.243,287.643l-54.405,54.404c7.344,1.969,13.125,7.75,15.093,15.078l54.389-54.389
		C219.868,297.175,214.806,292.112,209.243,287.643z"/>
	<path style="fill:#4FC2E9;" d="M134.23,347.563l-74.326-19.92c-2.562,6.562-4.437,13.467-5.5,20.623l74.31,19.906
		c-0.469-1.75-0.719-3.609-0.719-5.531C127.996,356.766,130.371,351.423,134.23,347.563z"/>
	<path style="fill:#4FC2E9;" d="M89.403,437.655l54.389-54.389c-7.328-1.969-13.109-7.75-15.078-15.094l-54.389,54.404
		C78.779,428.139,83.841,433.202,89.403,437.655z"/>
	<path style="fill:#4FC2E9;" d="M184.322,452.077l-19.921-74.342l74.341,19.922c2.562-6.547,4.422-13.453,5.5-20.609l-74.311-19.906
		c0.469,1.75,0.719,3.594,0.719,5.5c0,11.781-9.546,21.344-21.327,21.344c-1.906,0-3.766-0.25-5.516-0.719l19.906,74.311
		C170.869,456.499,177.776,454.639,184.322,452.077z"/>
</g>
<g>
	<path style="fill:#ED5564;" d="M456.799,381.391L343.912,268.497c-7.766,1.539-15.375,4.055-22.656,7.521l128.027,128.029
		C452.752,396.766,455.267,389.157,456.799,381.391z"/>
	<path style="fill:#ED5564;" d="M383.254,368.173c-0.938,3.5-2.766,6.812-5.516,9.562s-6.062,4.594-9.578,5.531l54.405,54.389
		c2.749-2.203,5.405-4.578,7.968-7.125c2.547-2.547,4.922-5.203,7.109-7.953L383.254,368.173z"/>
	<path style="fill:#ED5564;" d="M342.053,357.141c0.922-3.516,2.765-6.828,5.515-9.578c2.75-2.734,6.062-4.578,9.562-5.516
		l-54.405-54.404c-2.75,2.219-5.406,4.578-7.952,7.125c-2.562,2.562-4.922,5.219-7.125,7.969L342.053,357.141z"/>
	<path style="fill:#ED5564;" d="M268.492,343.923l112.887,112.889c7.766-1.547,15.391-4.047,22.656-7.516L276.008,321.268
		C272.539,328.534,270.023,336.143,268.492,343.923z"/>
</g>
<g>
</g>
<g>
</g>
<g>
</g>
<g>
</g>
<g>
</g>
<g>
</g>
<g>
</g>
<g>
</g>
<g>
</g>
<g>
</g>
<g>
</g>
<g>
</g>
<g>
</g>
<g>
</g>
<g>
</g>
</svg>
