<?xml version="1.0" encoding="iso-8859-1"?>
<!-- Generator: Adobe Illustrator 19.0.0, SVG Export Plug-In . SVG Version: 6.00 Build 0)  -->
<svg version="1.1" id="Layer_1" xmlns="http://www.w3.org/2000/svg" xmlns:xlink="http://www.w3.org/1999/xlink" x="0px" y="0px"
	 viewBox="0 0 511.984 511.984" style="enable-background:new 0 0 511.984 511.984;" xml:space="preserve">
<rect x="8.617" y="84.112" style="fill:#656D78;" width="493.96" height="338.97"/>
<path style="fill:#48CFAD;" d="M474.641,341.547c0,29.438-23.874,53.328-53.311,53.328c-29.468,0-53.343-23.891-53.343-53.328
	c0-29.467,23.875-53.342,53.343-53.342C450.767,288.205,474.641,312.08,474.641,341.547z"/>
<g>
	<path style="fill:#37BC9B;" d="M413.768,333.767c-4.156,4.172-4.156,10.936,0,15.092c4.172,4.156,10.937,4.156,15.093,0
		s4.156-10.92,0-15.092C424.705,329.611,417.94,329.611,413.768,333.767z"/>
	<path style="fill:#37BC9B;" d="M413.768,301.767c-4.156,4.172-4.156,10.938,0,15.094c4.172,4.156,10.937,4.156,15.093,0
		s4.156-10.922,0-15.094C424.705,297.611,417.94,297.611,413.768,301.767z"/>
	<path style="fill:#37BC9B;" d="M413.768,365.765c-4.156,4.172-4.156,10.938,0,15.094c4.172,4.156,10.937,4.156,15.093,0
		s4.156-10.922,0-15.094C424.705,361.609,417.94,361.609,413.768,365.765z"/>
	<path style="fill:#37BC9B;" d="M390.847,315.017c-5.688,1.531-9.062,7.375-7.547,13.062c1.531,5.688,7.375,9.062,13.062,7.531
		c5.688-1.516,9.078-7.359,7.547-13.062C402.394,316.861,396.535,313.486,390.847,315.017z"/>
	<path style="fill:#37BC9B;" d="M459.33,354.547c-1.516-5.688-7.375-9.062-13.062-7.531s-9.062,7.375-7.531,13.062
		c1.516,5.688,7.375,9.062,13.062,7.531C457.486,366.094,460.861,360.25,459.33,354.547z"/>
	<path style="fill:#37BC9B;" d="M396.363,347.015c-5.688-1.531-11.531,1.844-13.062,7.531c-1.531,5.703,1.859,11.547,7.547,13.062
		c5.688,1.531,11.547-1.844,13.062-7.531S402.051,348.547,396.363,347.015z"/>
	<path style="fill:#37BC9B;" d="M446.267,335.611c5.688,1.531,11.547-1.844,13.062-7.531c1.531-5.688-1.844-11.531-7.531-13.062
		s-11.547,1.844-13.062,7.531C437.205,328.252,440.58,334.096,446.267,335.611z"/>
</g>
<path style="fill:#ED5564;" d="M143.995,170.584c0,29.452-23.875,53.326-53.334,53.326c-29.452,0-53.326-23.874-53.326-53.326
	c0-29.46,23.874-53.334,53.326-53.334C120.121,117.25,143.995,141.124,143.995,170.584z"/>
<g>
	<path style="fill:#723939;" d="M61.787,141.632c-4.164,4.164-4.164,10.921,0,15.085c4.172,4.164,10.921,4.164,15.085,0
		s4.164-10.921,0-15.085S65.959,137.468,61.787,141.632z"/>
	<path style="fill:#723939;" d="M72.458,184.373c-4.171,4.164-4.171,10.914,0,15.085c4.164,4.164,10.914,4.164,15.078,0
		c4.171-4.172,4.171-10.922,0-15.085C83.372,180.209,76.622,180.209,72.458,184.373z"/>
	<path style="fill:#723939;" d="M104.457,163.037c-4.171,4.172-4.171,10.922,0,15.086c4.164,4.164,10.914,4.164,15.078,0
		c4.171-4.164,4.171-10.914,0-15.086C115.371,158.873,108.621,158.873,104.457,163.037z"/>
</g>
<path style="fill:#FFCE54;" d="M256,386.828c-8.328,8.344-21.835,8.344-30.163,0l-15.132-15.156c-8.328-8.344-8.328-21.844,0-30.172
	l45.436-45.264c8.328-8.312,21.836-8.312,30.163,0l14.952,15.172c8.328,8.328,8.328,21.844,0,30.17L256,386.828z"/>
<g>
	<path style="fill:#ED5564;" d="M256,315.83c-5.891,0-10.664,4.781-10.664,10.656c0,5.906,4.773,10.688,10.664,10.688
		c5.891-0.016,10.672-4.781,10.672-10.688C266.672,320.611,261.89,315.83,256,315.83z"/>
	<path style="fill:#ED5564;" d="M255.969,345.969c-5.891,0-10.664,4.766-10.664,10.672c0,5.875,4.773,10.656,10.664,10.656
		s10.672-4.781,10.672-10.656C266.64,350.734,261.859,345.969,255.969,345.969z"/>
</g>
<rect x="202.662" y="117.332" style="fill:#AC92EB;" width="106.68" height="106.67"/>
<rect x="42.662" y="287.982" style="fill:#A0D468;" width="106.67" height="106.67"/>
<path style="fill:#FC6E51;" d="M383.613,132.952c-12.5,12.5-12.5,32.757,0,45.257l30.155,30.171
	c12.499,12.499,32.765,12.499,45.265,0c12.5-12.5,12.5-32.757,0-45.257l-30.172-30.171
	C416.362,120.461,396.113,120.461,383.613,132.952z"/>
<g>
	<path style="fill:#FFCE54;" d="M418.206,178.209c0,5.89,4.766,10.663,10.655,10.663c5.891,0,10.672-4.773,10.672-10.663
		c-0.016-5.891-4.781-10.664-10.672-10.664C422.971,167.545,418.206,172.319,418.206,178.209z"/>
	<path style="fill:#FFCE54;" d="M403.113,163.123c0,5.891,4.781,10.664,10.655,10.664c5.906,0,10.687-4.773,10.687-10.664
		s-4.78-10.664-10.687-10.664C407.894,152.46,403.113,157.233,403.113,163.123z"/>
</g>
<path style="fill:#434A54;" d="M0,74.658v362.668h511.984V74.658H0z M490.64,245.324H351.989V95.992H490.64V245.324z
	 M181.33,245.324V95.992h149.316v149.332H181.33z M330.646,266.652v149.33H181.33v-149.33H330.646z M159.995,95.992v149.332H21.335
	V95.992H159.995z M21.335,266.652h138.66v149.33H21.335V266.652z M351.989,415.982v-149.33H490.64v149.33H351.989z"/>
<g>
	<polygon style="fill:#FFCE54;" points="42.662,388.703 149.331,348.703 129.793,333.252 42.662,365.922 	"/>
	<polygon style="fill:#FFCE54;" points="42.662,316.705 149.331,356.703 149.331,333.924 42.662,293.924 	"/>
</g>
<path style="fill:#967ADC;" d="M303.693,171.28l-19.015-19.023c-4.172-4.164-10.937-4.164-15.093,0l-13.789,13.796l-13.593-13.593
	c-3.945-3.945-10.21-4.148-14.398-0.625c-0.234,0.203-0.469,0.406-0.688,0.625l-18.828,18.82c-4.164,4.164-4.164,10.921,0,15.085
	c2.086,2.085,4.812,3.125,7.547,3.125c2.726,0,5.46-1.039,7.539-3.125l11.281-11.281l13.593,13.593
	c1.305,1.305,2.859,2.195,4.508,2.688c0.992,0.289,2.016,0.438,3.039,0.438c2.727,0,5.453-1.039,7.539-3.125l13.781-13.788
	l11.499,11.476c2.062,2.085,4.812,3.125,7.53,3.125c2.734,0,5.469-1.039,7.547-3.125
	C307.865,182.201,307.865,175.444,303.693,171.28z"/>
<g>
</g>
<g>
</g>
<g>
</g>
<g>
</g>
<g>
</g>
<g>
</g>
<g>
</g>
<g>
</g>
<g>
</g>
<g>
</g>
<g>
</g>
<g>
</g>
<g>
</g>
<g>
</g>
<g>
</g>
</svg>
